<svg xmlns="http://www.w3.org/2000/svg" viewBox="0 0 474.449 474.449" width="512" height="512"><path d="M237.24 0C106.233 0 .016 106.217.016 237.224S106.233 474.449 237.24 474.449s237.193-106.217 237.193-237.224S368.248 0 237.24 0zm0 442.666c-113.273 0-205.442-92.169-205.442-205.442S123.968 31.782 237.24 31.782s205.41 92.169 205.41 205.442c.032 113.241-92.105 205.442-205.41 205.442z" data-original="#090509" class="active-path" data-old_color="#090509" fill="#E31E24"/><path d="M248.205 113.622c-3.178-3.178-7.31-4.704-11.473-4.64-4.227-.064-8.391 1.462-11.569 4.64l-106.312 94.044c-6.229 6.229-6.229 16.368 0 22.597 6.229 6.261 16.368 6.261 22.597 0l95.22-84.255 95.22 84.255c6.229 6.261 16.4 6.261 22.597 0 6.229-6.229 6.229-16.368 0-22.597l-106.28-94.044z" data-original="#090509" class="active-path" data-old_color="#090509" fill="#E31E24"/><path d="M248.205 227.594c-3.178-3.178-7.31-4.704-11.473-4.64-4.227-.064-8.391 1.462-11.569 4.64l-106.312 94.013c-6.229 6.261-6.229 16.4 0 22.597 6.229 6.261 16.368 6.261 22.597 0l95.22-84.192 95.22 84.192c6.229 6.261 16.4 6.261 22.597 0 6.229-6.198 6.229-16.336 0-22.597l-106.28-94.013z" data-original="#090509" class="active-path" data-old_color="#090509" fill="#E31E24"/></svg>