<svg xmlns="http://www.w3.org/2000/svg" viewBox="0 0 360.33 360.33" width="512" height="512"><path d="M352.292 8.364C347.048 3.033 340.041.063 332.563.001L332.328 0c-15.308 0-27.866 12.456-27.992 27.766-.061 7.478 2.792 14.533 8.037 19.864s12.251 8.301 19.729 8.363l.235.001c15.308 0 27.866-12.456 27.992-27.766.061-7.478-2.793-14.533-8.037-19.864zm-19.956 37.287l-.149-.001a17.538 17.538 0 0 1-12.439-5.273 17.537 17.537 0 0 1-5.068-12.525c.079-9.654 7.996-17.508 17.648-17.508l.149.001a17.538 17.538 0 0 1 12.439 5.273 17.537 17.537 0 0 1 5.068 12.525c-.079 9.654-7.996 17.508-17.648 17.508zM28.228 152.169l-.235-.001c-15.309 0-27.866 12.456-27.992 27.767-.127 15.436 12.328 28.099 27.765 28.227H28c15.309 0 27.867-12.456 27.993-27.766.127-15.437-12.328-28.1-27.765-28.227zM28 197.818l-.149-.001c-9.734-.08-17.588-8.064-17.508-17.798.08-9.654 7.997-17.508 17.649-17.508h.149c9.734.08 17.588 8.065 17.508 17.799-.079 9.654-7.996 17.508-17.649 17.508zM133.585 46.812l-.235-.001c-15.309 0-27.867 12.456-27.992 27.766-.127 15.437 12.328 28.1 27.765 28.227l.235.001c15.308 0 27.866-12.456 27.992-27.766.127-15.438-12.328-28.101-27.765-28.227zm-.228 45.65l-.149-.001c-9.734-.08-17.588-8.065-17.508-17.798.08-9.654 7.997-17.508 17.649-17.508l.149.001c9.734.08 17.588 8.065 17.508 17.798-.079 9.654-7.996 17.508-17.649 17.508zm76.312 30.434l-.235-.001c-15.309 0-27.866 12.456-27.992 27.766-.127 15.437 12.329 28.1 27.766 28.227l.234.001c15.308 0 27.866-12.456 27.992-27.766.127-15.438-12.329-28.1-27.765-28.227zm-.228 45.65l-.149-.001c-9.734-.08-17.588-8.065-17.508-17.798.079-9.654 7.996-17.508 17.648-17.508l.149.001c9.734.08 17.587 8.065 17.507 17.798-.078 9.654-7.995 17.508-17.647 17.508z" fill="#e31e24"/><path fill="#e31e24" d="M221.89 131.088l90.498-90.73 7.323 7.305-90.499 90.73zm-76.054-36.475l7.313-7.314 43.836 43.836-7.314 7.313zM40.48 160.369l73.078-73.078 7.314 7.313-73.079 73.078zm256.247-53.851V360.33h63.602V106.518h-63.602zm10.344 243.468l-.001-233.125h42.916v233.125h-42.915zM197.818 213.035V360.33h63.602V213.035h-63.602zm53.26 136.951h-42.916V223.379h42.916v126.607zM98.908 205.427V360.33h63.602V205.427H98.908zm53.26 144.559h-42.916V215.771h42.916v134.215zM0 243.469V360.33h63.602l.001-116.861H0zm53.259 106.517H10.343v-96.175h42.916v96.175z"/></svg>