<svg xmlns="http://www.w3.org/2000/svg" viewBox="0 0 512.001 512.001" width="512" height="512"><path d="M463.344 419.582c14.605-10.454 24.147-27.55 24.147-46.84 0-31.747-25.828-57.575-57.575-57.575-31.747 0-57.575 25.828-57.575 57.575 0 19.296 9.548 36.397 24.16 46.849-28.652 12.822-48.671 41.591-48.671 74.958a8.927 8.927 0 0 0 17.854 0c0-35.418 28.814-64.232 64.232-64.232s64.232 28.814 64.232 64.232a8.927 8.927 0 0 0 17.854 0c-.002-33.365-20.011-62.143-48.658-74.967zm-33.428-7.119c-21.903 0-39.721-17.819-39.721-39.721s17.819-39.721 39.721-39.721c21.903 0 39.721 17.819 39.721 39.721 0 21.902-17.818 39.721-39.721 39.721zM312.952 31.882c-15.58-15.363-36.24-23.668-58.116-23.346-44.673.627-80.537 37.503-79.946 82.201.275 20.771 8.391 40.427 22.854 55.35 9.843 10.156 15.263 23.277 15.263 36.947v10.353c0 20.883 16.989 37.872 37.872 37.872h10.242c20.883 0 37.872-16.989 37.872-37.872v-10.354c0-13.69 5.4-26.791 15.206-36.888 14.779-15.219 22.919-35.285 22.919-56.502 0-21.882-8.582-42.394-24.166-57.761zM281.14 193.388c0 11.038-8.98 20.018-20.018 20.018H250.88c-11.038 0-20.018-8.98-20.018-20.018v-1.426h50.279v1.426zm20.252-59.679c-10.923 11.248-17.722 25.346-19.661 40.4h-16.804v-51.468l26.419-26.419a8.927 8.927 0 0 0-12.624-12.624L256 106.321l-22.721-22.723a8.927 8.927 0 0 0-12.624 12.624l26.419 26.419v51.468h-16.806c-1.945-15.039-8.759-29.153-19.703-40.446-11.279-11.638-17.607-26.966-17.822-43.161-.461-34.863 27.507-63.625 62.345-64.114.306-.004.612-.006.918-.006 16.738 0 32.479 6.447 44.412 18.214 12.155 11.984 18.847 27.983 18.847 45.05-.001 16.545-6.348 32.194-17.873 44.063zM171.148 233.874c-3.485-3.486-9.137-3.486-12.624 0l-53.558 53.558c-3.486 3.485-3.486 9.137 0 12.624 1.742 1.744 4.028 2.615 6.312 2.615s4.569-.871 6.312-2.615l53.558-53.558a8.927 8.927 0 0 0 0-12.624zm235.887 53.558l-53.558-53.558c-3.485-3.486-9.137-3.486-12.624 0-3.486 3.485-3.486 9.137 0 12.624l53.558 53.558c1.742 1.744 4.028 2.615 6.312 2.615s4.569-.871 6.312-2.615a8.927 8.927 0 0 0 0-12.624zM256 252.528a8.927 8.927 0 0 0-8.927 8.927v34.074a8.927 8.927 0 0 0 17.854 0v-34.074a8.927 8.927 0 0 0-8.927-8.927z" fill="#e31e24"/><circle cx="409.545" cy="352.724" r="8.927" fill="#e31e24"/><circle cx="442.276" cy="352.724" r="8.927" fill="#e31e24"/><path d="M289.429 419.582c14.605-10.454 24.147-27.55 24.147-46.84 0-31.747-25.828-57.575-57.575-57.575-31.747 0-57.575 25.828-57.575 57.575 0 19.296 9.548 36.397 24.16 46.849-28.652 12.822-48.671 41.591-48.671 74.958a8.927 8.927 0 0 0 17.854 0c0-35.418 28.814-64.232 64.232-64.232s64.232 28.814 64.232 64.232a8.927 8.927 0 0 0 17.854 0c-.002-33.365-20.011-62.143-48.658-74.967zM256 412.463c-21.903 0-39.721-17.819-39.721-39.721S234.099 333.02 256 333.02c21.903 0 39.721 17.819 39.721 39.721 0 21.903-17.818 39.722-39.721 39.722z" fill="#e31e24"/><circle cx="239.64" cy="352.724" r="8.927" fill="#e31e24"/><circle cx="272.372" cy="352.724" r="8.927" fill="#e31e24"/><path d="M115.5 419.59c14.612-10.453 24.16-27.553 24.16-46.849 0-31.747-25.828-57.575-57.575-57.575S24.51 340.994 24.51 372.741c0 19.29 9.542 36.388 24.147 46.84C20.009 432.406 0 461.184 0 494.548a8.927 8.927 0 0 0 17.854 0c0-35.418 28.814-64.232 64.232-64.232s64.232 28.814 64.232 64.232a8.927 8.927 0 0 0 17.854 0c-.002-33.367-20.02-62.135-48.672-74.958zm-33.415-7.127c-21.903 0-39.721-17.819-39.721-39.721s17.819-39.721 39.721-39.721c21.903 0 39.721 17.819 39.721 39.721s-17.818 39.721-39.721 39.721z" fill="#e31e24"/><circle cx="102.455" cy="352.724" r="8.927" fill="#e31e24"/><circle cx="69.723" cy="352.724" r="8.927" fill="#e31e24"/></svg>