<svg xmlns="http://www.w3.org/2000/svg" width="222.393" height="70.209" viewBox="0 0 997 315" shape-rendering="geometricPrecision" text-rendering="geometricPrecision" image-rendering="optimizeQuality" fill-rule="evenodd" clip-rule="evenodd"><g fill-rule="nonzero"><path d="M476 214c45 0 71-20 91-46l-43-31c-13 15-25 25-47 25-28 0-49-24-49-55s21-55 49-55c20 0 34 9 46 24l41-32c-18-26-44-44-86-44-62 0-109 47-109 107 0 62 48 107 107 107zm406 101c21 0 37-16 37-36 0-19-16-35-37-35s-36 16-36 35c0 20 15 36 36 36zm0-17c-10 0-17-9-17-19s7-18 17-18 18 9 18 18c0 10-7 19-18 19zm51 15h19v-37l29 37h16v-68h-18v36l-28-36h-18v68zM588 210h58V4h-58v206zm140 0h57V54h93L847 4H667v50h61v156zm134 0h57v-78L997 4h-64l-42 75-4-7h-62l37 61v77zM369 313h56v-16h-37v-10h33v-15h-33v-10h36v-17h-55v68zm70 0h25c25 0 39-14 39-34s-14-34-38-34h-26v68zm18-16v-35h8c11 0 19 6 19 17 0 12-8 18-19 18h-8zm91 18c19 0 32-10 32-32v-38h-19v39c0 9-5 14-13 14s-13-5-13-15v-38h-19v39c0 21 12 31 32 31zm80 0c15 0 24-7 30-16l-14-10c-4 5-8 9-15 9-10 0-17-8-17-19 0-10 7-18 17-18 6 0 11 3 14 8l14-11c-6-8-14-14-28-14-21 0-36 16-36 35 0 21 16 36 35 36zm37-2h20l5-12h26l5 12h20l-29-68h-18l-29 68zm30-26l8-20 7 20h-15zm65 26h19v-51h20v-17h-59v17h20v51zm52 0h19v-68h-19v68zm-583-85h86v86h-86v-86zM0 1h86v86H0V1zm114 0h86v86h-86V1zm115 0h86v86h-86V1zM0 114h86v86H0v-86zm0 114h86v86H0v-86zm114 0h86v86h-86v-86z" fill="#e31e24"/><path d="M114 114h86v86h-86v-86zm115 0h86v86h-86v-86z" fill="#b2b3b3"/></g></svg>