<svg xmlns="http://www.w3.org/2000/svg" width="512" height="512" viewBox="0 0 566.918 566.918"><path d="M538.411 254.964h-23.299c-12.98-106.019-97.149-190.187-203.16-203.158V28.505C311.952 12.758 299.194 0 283.448 0c-15.747 0-28.505 12.758-28.505 28.505v23.299c-106 12.991-190.15 97.139-203.141 203.141H28.505C12.768 254.946 0 267.705 0 283.452c0 15.735 12.758 28.505 28.505 28.505h23.299c12.97 106.008 97.13 190.168 203.141 203.158v23.297c0 15.748 12.758 28.506 28.505 28.506 15.745 0 28.504-12.758 28.504-28.506v-23.297c106.011-12.972 190.18-97.131 203.16-203.144h23.299c15.736 0 28.505-12.756 28.505-28.504-.002-15.735-12.761-28.503-28.507-28.503zm-80.9 0l-73.19-.006c-9.863-34.992-37.375-62.493-72.365-72.367v-73.183c74.516 12.166 133.382 71.031 145.555 145.556zM254.945 109.418v73.179c-34.98 9.874-62.483 37.375-72.347 72.359l-73.193-.01c12.183-74.507 71.031-133.353 145.54-145.528zm-145.538 202.54l73.193.008c9.861 34.98 37.365 62.48 72.347 72.357v73.18c-74.521-12.173-133.367-71.027-145.54-145.545zm202.545 145.555v-73.182c34.99-9.873 62.494-37.375 72.365-72.365l73.19.008c-12.169 74.518-71.026 133.373-145.555 145.539z" data-original="#000000" fill="#E31E24"/></svg>