<svg xmlns="http://www.w3.org/2000/svg" viewBox="0 0 492.75 492.75" width="512" height="512"><g fill="#e31e24"><path d="M45.082 121.589l-2.227 20.876 53.434 63.486 9.276-68.475c.433-3.196 1.338-6.191 2.199-9.202l-62.682-6.685zm45.456 126.825l2.799-20.661-52.876-62.832-7.819 73.314c-1.941 18.178 11.223 34.478 29.402 36.422l31.597 3.37c-3.15-9.258-4.504-19.262-3.103-29.613zm109.847-124.285c-4.577-12.695-18.593-19.301-31.296-14.693-12.703 4.585-19.286 18.593-14.693 31.296l29.665 82.164a24.41 24.41 0 0 0 16.516 15.274l76.894 21.14c2.165.597 4.346.884 6.495.884 10.729 0 20.575-7.124 23.56-17.98 3.582-13.021-4.075-26.473-17.097-30.054l-64.678-17.781-25.366-70.25z"/><path d="M280.893 391.117l-10.053-69.35a28.552 28.552 0 0 0-12.393-19.636l-40.759-27.214-14.318-9.56c.062-.417.14-.945.237-1.622l1.021-7.543-8.376-2.303a40.767 40.767 0 0 1-27.531-25.454l-9.316-25.806-50.052 28.345-2.658 19.627c-.562 4.143-.673 17.777 1.162 23.663 2.9 9.306 11.608 37.224 11.608 37.224l15.589 49.994-21.801 82.896c-4.012 15.242 5.094 30.843 20.328 34.846a28.75 28.75 0 0 0 7.275.947c12.647 0 24.204-8.477 27.571-21.275l23.886-90.824a28.494 28.494 0 0 0-.358-15.752l-10.235-32.818 34.479 23.02 8.229 56.774c2.062 14.208 14.255 24.443 28.2 24.435 1.361 0 2.738-.095 4.123-.294 15.594-2.257 26.403-16.727 24.142-32.32z"/><path d="M464.069 212.629c-7.195-5.42-17.423-3.972-22.827 3.216l-61.184 81.297a16.395 16.395 0 0 0-2.666 5.372l-25.191 89.089-38.658 5.524a16.19 16.19 0 0 0-5.707 1.942l-111.908 63.189c-7.84 4.425-10.602 14.367-6.177 22.207 2.993 5.309 8.517 8.286 14.208 8.286 2.714 0 5.468-.677 7.998-2.109l109.234-61.677 46.116-6.59a16.298 16.298 0 0 0 13.38-11.7l27.253-96.356 59.345-78.861c5.421-7.197 3.972-17.416-3.216-22.829zM51.776 113.025l59.31 6.33 7.516.802c3.691.394 7.354.03 10.903-.787-3.937 5.952-6.764 12.751-7.782 20.296l-9.621 71.021 41.688-23.61-14.732-40.805c-3.945-10.929-2.855-22.401 1.961-32.034.618-.432 1.294-.759 1.884-1.236 4.128-3.335 7.215-7.641 9.327-12.404 1.381-3.115 2.426-6.39 2.794-9.843.283-2.648.159-5.231-.168-7.762-1.918-14.836-13.704-27-29.233-28.659l-66.851-7.132a33.08 33.08 0 0 0-24.284 7.146 33.112 33.112 0 0 0-12.114 22.255c-1.942 18.18 11.223 34.481 29.402 36.422z"/><circle cx="200.891" cy="47.5" r="47.5"/></g></svg>