<svg xmlns="http://www.w3.org/2000/svg" viewBox="0 0 301.055 301.055" width="512" height="512"><path d="M189.798 31.551c0-4.143-3.357-7.5-7.5-7.5h-79.453a7.499 7.499 0 0 0-7.5 7.5v47.687c0 4.143 3.357 7.5 7.5 7.5h71.953v21.186L102.845 179.9l-18.532-18.54a7.5 7.5 0 0 0-11.463 1.021L1.342 265.221a7.497 7.497 0 0 0-.488 7.755 7.498 7.498 0 0 0 6.647 4.026h286.035a7.499 7.499 0 0 0 7.52-7.5 7.47 7.47 0 0 0-1.661-4.708L189.798 108.66V31.551zm-79.453 40.187V39.051h64.453v32.687h-64.453zM21.85 262.003l58.195-83.694 17.495 17.503a7.506 7.506 0 0 0 10.609 0l73.141-73.165 97.818 139.357H21.85z" fill="#e31e24"/></svg>