<svg xmlns="http://www.w3.org/2000/svg" width="512" height="512" viewBox="0 0 330.121 330.121"><path d="M329.994 165.061c0-90.393-73.102-164.005-163.288-164.891a8.031 8.031 0 0 0-1.645-.17c-1.644 0-3.246.158-4.867.25C71.496 2.842.127 75.749.127 165.061c0 90.392 73.104 164.004 163.29 164.891.531.109 1.081.17 1.644.17 1.645 0 3.248-.156 4.869-.25 88.697-2.595 160.064-75.499 160.064-164.811zm-313.676 0c0-58.072 33.471-108.442 82.117-132.93-12.098 15.02-19.378 34.166-19.378 55.02 0 47.424 38.581 86.003 86.004 86.003 38.498 0 69.816 31.32 69.816 69.814 0 37.467-28.736 68.168-64.975 70.713-1.612.051-3.217.123-4.842.123-82.017.001-148.742-66.727-148.742-148.743zm215.37 132.929c12.098-15.02 19.379-34.166 19.379-55.02 0-47.423-38.582-86.005-86.005-86.005-38.496 0-69.814-31.32-69.814-69.814 0-37.467 28.735-68.166 64.973-70.711 1.613-.053 3.218-.123 4.842-.123 82.018 0 148.745 66.727 148.745 148.745-.003 58.069-33.474 108.442-82.12 132.928z" data-original="#000000" class="active-path" data-old_color="#FDFBFB" fill="#FFFEFE"/><path d="M165.061 39.93c-12.274 0-22.261 9.988-22.261 22.26 0 12.273 9.986 22.262 22.261 22.262s22.261-9.988 22.261-22.262c0-12.272-9.986-22.26-22.261-22.26zm0 28.332a6.078 6.078 0 0 1-6.07-6.072 6.077 6.077 0 0 1 6.07-6.07 6.076 6.076 0 0 1 6.071 6.07 6.078 6.078 0 0 1-6.071 6.072zm22.261 197.154c0-12.273-9.984-22.26-22.261-22.26-12.274 0-22.261 9.986-22.261 22.26s9.986 22.262 22.261 22.262 22.261-9.989 22.261-22.262zm-28.331 0a6.076 6.076 0 0 1 6.07-6.07c3.349 0 6.071 2.723 6.071 6.07s-2.723 6.072-6.071 6.072-6.07-2.724-6.07-6.072z" data-original="#000000" class="active-path" data-old_color="#FDFBFB" fill="#fff"/></svg>