<?xml version="1.0" encoding="UTF-8"?>
<!DOCTYPE svg PUBLIC "-//W3C//DTD SVG 1.1//EN" "http://www.w3.org/Graphics/SVG/1.1/DTD/svg11.dtd">
<!-- Creator: CorelDRAW X8 -->
<svg xmlns="http://www.w3.org/2000/svg" xml:space="preserve" width="58.8415mm" height="18.576mm" version="1.1" style="shape-rendering:geometricPrecision; text-rendering:geometricPrecision; image-rendering:optimizeQuality; fill-rule:evenodd; clip-rule:evenodd"
viewBox="0 0 997 315"
 xmlns:xlink="http://www.w3.org/1999/xlink">
 <defs>
  <style type="text/css">
   <![CDATA[
    .fil1 {fill:#B2B3B3;fill-rule:nonzero}
    .fil0 {fill:#E31E24;fill-rule:nonzero}
   ]]>
  </style>
 </defs>
 <g id="Слой_x0020_1">
  <metadata id="CorelCorpID_0Corel-Layer"/>
  <path class="fil0" d="M476 214c45,0 71,-20 91,-46l-43 -31c-13,15 -25,25 -47,25 -28,0 -49,-24 -49,-55 0,-31 21,-55 49,-55 20,0 34,9 46,24l41 -32c-18,-26 -44,-44 -86,-44 -62,0 -109,47 -109,107 0,62 48,107 107,107zm406 101c21,0 37,-16 37,-36 0,-19 -16,-35 -37,-35 -21,0 -36,16 -36,35 0,20 15,36 36,36zm0 -17c-10,0 -17,-9 -17,-19 0,-10 7,-18 17,-18 10,0 18,9 18,18 0,10 -7,19 -18,19zm51 15l19 0 0 -37 29 37 16 0 0 -68 -18 0 0 36 -28 -36 -18 0 0 68zm-345 -103l58 0 0 -206 -58 0 0 206zm140 0l57 0 0 -156 93 0 -31 -50 -180 0 0 50 61 0 0 156zm134 0l57 0 0 -78 78 -128 -64 0 -42 75 -4 -7 -62 0 37 61 0 77zm-493 103l56 0 0 -16 -37 0 0 -10 33 0 0 -15 -33 0 0 -10 36 0 0 -17 -50 0 -5 0 0 4 0 64zm70 0l25 0c25,0 39,-14 39,-34 0,-20 -14,-34 -38,-34l-26 0 0 68zm18 -16l0 -35 8 0c11,0 19,6 19,17 0,12 -8,18 -19,18l-8 0zm91 18c19,0 32,-10 32,-32l0 -38 -19 0 0 39c0,9 -5,14 -13,14 -8,0 -13,-5 -13,-15l0 -38 -19 0 0 39c0,21 12,31 32,31zm80 0c15,0 24,-7 30,-16l-14 -10c-4,5 -8,9 -15,9 -10,0 -17,-8 -17,-19 0,-10 7,-18 17,-18 6,0 11,3 14,8l14 -11c-6,-8 -14,-14 -28,-14 -21,0 -36,16 -36,35 0,21 16,36 35,36zm37 -2l20 0 5 -12 26 0 5 12 20 0 -29 -68 -18 0 -29 68zm30 -26l8 -20 7 20 -15 0zm65 26l19 0 0 -51 20 0 0 -17 -59 0 0 17 20 0 0 51zm52 0l19 0 0 -68 -19 0 0 68z"/>
  <path class="fil0" d="M229 228l86 0 0 86 -86 0 0 -86zm-229 -227l86 0 0 86 -86 0 0 -86zm114 0l86 0 0 86 -86 0 0 -86zm115 0l86 0 0 86 -86 0 0 -86zm-229 113l86 0 0 86 -86 0 0 -86zm0 114l86 0 0 86 -86 0 0 -86zm114 0l86 0 0 86 -86 0 0 -86z"/>
  <path class="fil1" d="M114 114l86 0 0 86 -86 0 0 -86zm115 0l86 0 0 86 -86 0 0 -86z"/>
 </g>
</svg>
