<?xml version="1.0"?>
<svg xmlns="http://www.w3.org/2000/svg" xmlns:xlink="http://www.w3.org/1999/xlink" version="1.1" id="Capa_1" x="0px" y="0px" width="512px" height="512px" viewBox="0 0 330.121 330.121" style="enable-background:new 0 0 330.121 330.121;" xml:space="preserve" class=""><g><g>
	<g>
		<path d="M329.994,165.061c0-90.393-73.102-164.005-163.288-164.891C166.175,0.059,165.625,0,165.061,0    c-1.644,0-3.246,0.158-4.867,0.25C71.496,2.842,0.127,75.749,0.127,165.061c0,90.392,73.104,164.004,163.29,164.891    c0.531,0.109,1.081,0.17,1.644,0.17c1.645,0,3.248-0.156,4.869-0.25C258.627,327.277,329.994,254.373,329.994,165.061z     M16.318,165.061c0-58.072,33.471-108.442,82.117-132.93c-12.098,15.02-19.378,34.166-19.378,55.02    c0,47.424,38.581,86.003,86.004,86.003c38.498,0,69.816,31.32,69.816,69.814c0,37.467-28.736,68.168-64.975,70.713    c-1.612,0.051-3.217,0.123-4.842,0.123C83.043,313.805,16.318,247.077,16.318,165.061z M231.688,297.99    c12.098-15.02,19.379-34.166,19.379-55.02c0-47.423-38.582-86.005-86.005-86.005c-38.496,0-69.814-31.32-69.814-69.814    c0-37.467,28.735-68.166,64.973-70.711c1.613-0.053,3.218-0.123,4.842-0.123c82.018,0,148.745,66.727,148.745,148.745    C313.805,223.131,280.334,273.504,231.688,297.99z" data-original="#000000" class="active-path" data-old_color="#FDFBFB" fill="#FFFEFE"/>
		<path d="M165.061,39.93c-12.274,0-22.261,9.988-22.261,22.26c0,12.273,9.986,22.262,22.261,22.262s22.261-9.988,22.261-22.262    C187.322,49.918,177.336,39.93,165.061,39.93z M165.061,68.262c-3.348,0-6.07-2.725-6.07-6.072c0-3.347,2.723-6.07,6.07-6.07    c3.349,0,6.071,2.723,6.071,6.07C171.132,65.537,168.41,68.262,165.061,68.262z" data-original="#000000" class="active-path" data-old_color="#FDFBFB" fill="#fff"/>
		<path d="M187.322,265.416c0-12.273-9.984-22.26-22.261-22.26c-12.274,0-22.261,9.986-22.261,22.26s9.986,22.262,22.261,22.262    S187.322,277.689,187.322,265.416z M158.991,265.416c0-3.348,2.723-6.07,6.07-6.07c3.349,0,6.071,2.723,6.071,6.07    s-2.723,6.072-6.071,6.072S158.991,268.764,158.991,265.416z" data-original="#000000" class="active-path" data-old_color="#FDFBFB" fill="#fff"/>
	</g>
</g></g> </svg>
